<?xml version="1.0" encoding="UTF-8"?>
<svg id="Layer_2" data-name="Layer 2" xmlns="http://www.w3.org/2000/svg" viewBox="0 0 510.16 92.58">
  <defs>
    <style>
      .cls-1 {
        fill: #231f20;
      }

      .cls-1, .cls-2 {
        stroke-width: 0px;
      }

      .cls-2 {
        fill: #7562ab;
      }
    </style>
  </defs>
  <g id="Layer_1-2" data-name="Layer 1">
    <g>
      <path class="cls-2" d="M13.59,89.56c-1.9-.77-4.03-.7-5.82.28l-.19.11c-.58.31-1.28.47-2.12.47-1.64,0-2.96-.55-3.96-1.65-1-1.1-1.49-2.93-1.49-5.48v-7.23c0-2.59.5-4.43,1.49-5.53,1-1.1,2.31-1.65,3.96-1.65,1.26,0,2.31.33,3.17,1,.86.66,1.51,1.77,1.97,3.33.45,1.55.93,2.61,1.42,3.17,1.01,1.08,2.81,2.18,5.4,3.3,2.59,1.12,5.42,1.68,8.49,1.68,4.79,0,8.72-1.12,11.79-3.35,1.96-1.36,2.94-3.04,2.94-5.03,0-1.33-.47-2.58-1.42-3.75-.94-1.17-2.48-2.14-4.61-2.91-1.4-.52-4.53-1.24-9.38-2.15-5.87-1.08-10.31-2.39-13.31-3.93s-5.38-3.7-7.13-6.5-2.62-5.82-2.62-9.07c0-5.14,2.15-9.64,6.45-13.5,4.3-3.86,9.89-5.79,16.77-5.79,2.76,0,5.32.31,7.68.92,1.19.31,2.32.7,3.39,1.17,1.64.72,3.53.87,5.15.09.69-.33,1.38-.5,2.07-.5,1.57,0,2.86.55,3.85,1.65,1,1.1,1.49,2.93,1.49,5.48v8.07c0,2.59-.5,4.43-1.49,5.53-1,1.1-2.28,1.65-3.85,1.65-1.33,0-2.48-.4-3.46-1.21-.77-.59-1.35-1.78-1.73-3.56s-.87-3.06-1.47-3.83c-1.01-1.33-2.53-2.45-4.56-3.35s-4.37-1.36-7.02-1.36c-3.88,0-6.94.9-9.2,2.7-2.25,1.8-3.38,3.68-3.38,5.63,0,1.33.46,2.61,1.39,3.85.93,1.24,2.28,2.21,4.06,2.91,1.19.49,4.53,1.28,10.04,2.36,5.5,1.08,9.73,2.27,12.68,3.56s5.41,3.32,7.36,6.08c1.96,2.76,2.94,6.05,2.94,9.85,0,5.31-1.87,9.56-5.61,12.74-4.96,4.19-11.29,6.29-18.97,6.29-2.97,0-5.86-.36-8.67-1.07-1.51-.39-3-.87-4.47-1.47Z"/>
      <path class="cls-2" d="M103.1,73.23h-26.1l-2.62,6.55h2.62c2.59,0,4.43.5,5.53,1.49s1.65,2.3,1.65,3.9-.55,2.86-1.65,3.85-2.94,1.49-5.53,1.49h-14.47c-2.59,0-4.43-.5-5.53-1.49s-1.65-2.3-1.65-3.9.58-2.92,1.73-3.93,3.06-1.49,5.71-1.42l16.88-42.04h-7.02c-2.59,0-4.43-.5-5.53-1.49s-1.65-2.3-1.65-3.9.55-2.91,1.65-3.9,2.94-1.49,5.53-1.49l23.22.05,21.38,52.78c2.52,0,4.18.28,4.98.84,1.61,1.15,2.41,2.67,2.41,4.56,0,1.57-.54,2.86-1.62,3.85s-2.92,1.49-5.5,1.49h-14.47c-2.59,0-4.43-.5-5.53-1.49s-1.65-2.3-1.65-3.9.55-2.86,1.65-3.85,2.94-1.49,5.53-1.49h2.62l-2.57-6.55ZM98.64,62.49l-8.65-21.28-8.7,21.28h17.35Z"/>
      <path class="cls-2" d="M147.02,64.06v15.72h11.01c2.59,0,4.43.5,5.53,1.49s1.65,2.3,1.65,3.9-.55,2.86-1.65,3.85-2.94,1.49-5.53,1.49h-23.43c-2.59,0-4.43-.5-5.53-1.49s-1.65-2.3-1.65-3.9.56-2.86,1.68-3.85,2.95-1.49,5.5-1.49h1.68v-42.04h-1.68c-2.59,0-4.43-.5-5.53-1.49s-1.65-2.3-1.65-3.9.55-2.91,1.65-3.9,2.94-1.49,5.53-1.49l50.58.05v16.41c0,2.55-.5,4.38-1.49,5.48s-2.3,1.65-3.9,1.65-2.86-.54-3.85-1.62-1.49-2.92-1.49-5.5v-5.66h-27.41v15.57h9.43c0-2.8.26-4.59.79-5.4,1.08-1.71,2.62-2.57,4.61-2.57,1.57,0,2.86.55,3.85,1.65s1.49,2.94,1.49,5.53v12.37c0,2.59-.5,4.43-1.49,5.53s-2.3,1.65-3.9,1.65c-1.96,0-3.48-.86-4.56-2.57-.52-.8-.79-2.62-.79-5.45h-9.43Z"/>
      <path class="cls-2" d="M231.93,73.23h-26.1l-2.62,6.55h2.62c2.59,0,4.43.5,5.53,1.49s1.65,2.3,1.65,3.9-.55,2.86-1.65,3.85-2.94,1.49-5.53,1.49h-14.47c-2.59,0-4.43-.5-5.53-1.49s-1.65-2.3-1.65-3.9.58-2.92,1.73-3.93,3.06-1.49,5.71-1.42l16.88-42.04h-7.02c-2.59,0-4.43-.5-5.53-1.49s-1.65-2.3-1.65-3.9.55-2.91,1.65-3.9,2.94-1.49,5.53-1.49l23.22.05,21.38,52.78c2.52,0,4.18.28,4.98.84,1.61,1.15,2.41,2.67,2.41,4.56,0,1.57-.54,2.86-1.62,3.85s-2.92,1.49-5.5,1.49h-14.47c-2.59,0-4.43-.5-5.53-1.49s-1.65-2.3-1.65-3.9.55-2.86,1.65-3.85,2.94-1.49,5.53-1.49h2.62l-2.57-6.55ZM227.48,62.49l-8.65-21.28-8.7,21.28h17.35Z"/>
      <path class="cls-2" d="M315.32,80.62c-.88-.56-2.68-.84-5.4-.84-2.73-4.22-4.89-7.33-6.5-9.33-2.59-3.1-5.01-5.66-7.29-7.65,3.95-2.13,6.9-4.57,8.86-7.31,1.96-2.74,2.94-5.79,2.94-9.15,0-5.38-2.09-9.95-6.27-13.7-4.17-3.76-10.05-5.64-17.63-5.64l-22.65-.05v63.58h10.75v-24.27h10.64c5.73,2.73,12.94,10.82,21.65,24.27h6.13c2.58,0,4.42-.5,5.5-1.49,1.08-1,1.63-2.28,1.63-3.86,0-1.95-.79-3.47-2.36-4.56ZM288.85,54.1c-2.45.95-5.23,1.42-8.34,1.42h-8.38v-17.77h12.32c4.15,0,7.32.86,9.48,2.59,2.17,1.73,3.25,3.61,3.25,5.64,0,1.36-.57,2.74-1.7,4.14-1.14,1.4-3.35,2.72-6.63,3.98ZM252.68,83.8c-.1.41-.15.86-.15,1.33,0,1.03.22,1.93.67,2.71l-.52-4.04Z"/>
      <path class="cls-1" d="M347.93,92.58h-1.03l-18.21-22.22c-3.36-4.18-5.62-7.36-6.79-9.52-1.17-2.16-1.75-3.99-1.75-5.5,0-2.19,1.75-3.29,5.25-3.29,1.03,0,2.45.07,4.27.21,1.82.14,3.34.28,4.58.41.34-1.71.57-3.68.67-5.91.1-2.23.16-4.17.16-5.81,0-1.51-.02-2.76-.05-3.76-.03-.99-.09-1.9-.15-2.73h-18.83l-3.5-6.69v-1.03h72.11l3.5,6.69v1.03h-12.04l.21,57.09h-1.03l-8.23-5.35.1-20.26c-2.81,1.03-5.76,1.54-8.85,1.54-1.92,0-4.39-.39-7.41-1.18-3.02-.79-6.48-2.76-10.39-5.92-1.64,3.02-4.56,4.94-8.74,5.76l21.4,22.12-5.25,4.32ZM342.17,56.27c.82.48,2.01.98,3.55,1.49,1.54.52,3.19.94,4.94,1.29s3.41.51,4.99.51c2.4,0,4.66-.39,6.79-1.18,2.12-.79,3.74-1.66,4.83-2.62l.21-21.3h-24.28c.14,1.3.22,2.74.26,4.32.03,1.58.05,2.68.05,3.29,0,3.02-.12,5.76-.36,8.23-.24,2.47-.57,4.46-.98,5.97Z"/>
      <path class="cls-1" d="M415.62,34.46h-12.04l.21,57.61h-1.03l-8.23-5.35.41-52.26h-9.05l-3.5-6.69v-1.03h29.73l3.5,6.69v1.03Z"/>
      <path class="cls-1" d="M447.61,76.84c-4.11,0-7.89-1.04-11.31-3.14-3.43-2.09-6.33-4.9-8.69-8.43-2.37-3.53-4-7.39-4.89-11.57,6.24-1.78,11.18-3.72,14.81-5.81,3.63-2.09,5.45-5.02,5.45-8.79,0-2.33-.69-3.98-2.06-4.94s-3.02-1.44-4.94-1.44c-1.51,0-3.02.31-4.53.93-1.51.62-2.74,1.48-3.7,2.57-.96,1.1-1.44,2.4-1.44,3.91s.51,2.71,1.54,3.6c1.03.89,2.19,1.68,3.5,2.37v1.13c-.69.07-1.18.12-1.49.16s-.67.05-1.08.05c-3.22,0-5.78-1.01-7.66-3.03-1.89-2.02-2.83-4.41-2.83-7.15,0-3.22,1.25-6,3.75-8.33,2.5-2.33,5.78-3.5,9.82-3.5,3.57,0,6.72.96,9.47,2.88s4.9,4.3,6.48,7.15,2.37,5.64,2.37,8.38-.77,5.19-2.31,7.15-3.69,3.64-6.43,5.04c-2.74,1.41-5.9,2.76-9.47,4.06,0,2.06.55,3.84,1.65,5.35,1.1,1.51,2.56,2.69,4.37,3.55,1.82.86,3.72,1.29,5.71,1.29,3.02,0,6.14-.87,9.36-2.62,3.22-1.75,6.14-3.92,8.74-6.53l.21-26.64h-7.41l-3.5-6.69v-1.03h28.08l3.5,6.69v1.03h-12.04l.21,57.09h-1.03l-8.23-5.35.1-14.5c-2.61,1.92-5.01,3.26-7.2,4.01-2.19.76-4.49,1.13-6.89,1.13Z"/>
      <path class="cls-1" d="M498.33,92.07h-1.03l-8.23-5.35.41-52.26h-9.05l-3.5-6.69v-1.03h13.27c-.48-4.59-1.51-8.26-3.09-11.01-1.58-2.74-3.48-4.73-5.71-5.97s-4.54-1.85-6.94-1.85c-3.15,0-5.59.84-7.31,2.52-1.71,1.68-2.57,3.82-2.57,6.43,0,1.78.48,3.74,1.44,5.86l-3.09,1.75c-1.71-1.78-3-3.69-3.86-5.71s-1.29-4.03-1.29-6.02c0-3.43,1.2-6.41,3.6-8.95,2.4-2.54,5.83-3.81,10.29-3.81,3.91,0,7.56,1.08,10.95,3.24,3.4,2.16,6.34,5.25,8.85,9.26,2.5,4.01,4.34,8.76,5.5,14.25h9.67l3.5,6.69v1.03h-12.04l.21,57.61Z"/>
    </g>
  </g>
</svg>